<svg xmlns="http://www.w3.org/2000/svg" width="38.903" height="27.134" viewBox="0 0 38.903 27.134"><g transform="translate(-171.29 2725.2)"><path d="M1596.938-2724.667c-.007.3-.02.648-.027.785l-.011.249.32.016a14.309,14.309,0,0,1,9.612,4.442,14.3,14.3,0,0,1,3.592,6.956,13.794,13.794,0,0,1,.276,2.535l.014.621.462.013c.253.009.6.016.775.02l.314,0,.007-.313c.009-.374-.029-1.194-.074-1.647a15.791,15.791,0,0,0-7-11.6,15.03,15.03,0,0,0-3.72-1.8,15.367,15.367,0,0,0-4.249-.8l-.274-.013Z" transform="translate(-1402.08 0)" fill="#fff"/><path d="M1591.531-2513.7c0,.164-.009.515-.018.782l-.013.487.246.016a9.155,9.155,0,0,1,2.465.471,9.175,9.175,0,0,1,3.823,2.4,9.316,9.316,0,0,1,2.384,4.314,9.419,9.419,0,0,1,.274,2.057l.013.442.249.013c.137.007.489.018.782.027l.531.014v-.4a10.667,10.667,0,0,0-.616-3.525,11.583,11.583,0,0,0-1.421-2.761,11.078,11.078,0,0,0-7.967-4.6c-.2-.018-.441-.034-.544-.034h-.186Z" transform="translate(-1396.801 -206.467)" fill="#fff"/><path d="M1586.525-2302.906c-.007.054-.016.4-.018.78l-.007.683.123.007a4.8,4.8,0,0,1,3.137,1.452,4.75,4.75,0,0,1,1.322,3.189c0,.193,0,.2.052.213.027.007.381.018.787.025l.737.016-.013-.4a6.26,6.26,0,0,0-1.266-3.568,7.74,7.74,0,0,0-1.058-1.094,6.567,6.567,0,0,0-2.169-1.147,6.361,6.361,0,0,0-1.466-.249h-.15Z" transform="translate(-1391.913 -412.738)" fill="#fff"/><path d="M552.524-2245.79a8.921,8.921,0,0,0-2.691.556,4.577,4.577,0,0,0-2.353,1.929,3.609,3.609,0,0,0-.446,1.186,4.478,4.478,0,0,0,.769,3.675,6.424,6.424,0,0,0,2.154,1.645c.1.053.5.229.885.392a14.368,14.368,0,0,1,2.033.97,2.758,2.758,0,0,1,1.049,1.022,1.367,1.367,0,0,1-.06,1.284,2.343,2.343,0,0,1-1.708.876,8,8,0,0,1-1.591,0,6.868,6.868,0,0,1-3.4-1.427l-.168-.134,0,1.775.007,1.777.235.106a9.4,9.4,0,0,0,2.936.706,19.648,19.648,0,0,0,2.577,0,7.141,7.141,0,0,0,3.007-.88,3.651,3.651,0,0,0,.87-.679,3.652,3.652,0,0,0,.726-.988,4.38,4.38,0,0,0,.448-2.118,4.169,4.169,0,0,0-.421-2.008,3.944,3.944,0,0,0-.863-1.147,9.556,9.556,0,0,0-2.938-1.737,7.57,7.57,0,0,1-2.438-1.369,1.36,1.36,0,0,1-.448-.944,1.145,1.145,0,0,1,.249-.818,2.626,2.626,0,0,1,1.806-.82,9.212,9.212,0,0,1,1.6.042,6.852,6.852,0,0,1,2.523.881,2.365,2.365,0,0,0,.231.132c.007,0,.013-.74.013-1.645v-1.645l-.139-.049a10.179,10.179,0,0,0-2.931-.538C553.7-2245.8,552.842-2245.808,552.524-2245.79Z" transform="translate(-375.641 -468.655)" fill="#fff"/><path d="M1149-2226.167v7.935h3.01c1.822,0,3.149-.009,3.366-.022a8.445,8.445,0,0,0,4.852-1.717,9.605,9.605,0,0,0,1.194-1.183,7.491,7.491,0,0,0,1.5-3.4,8.11,8.11,0,0,0,.134-1.871,9.439,9.439,0,0,0-.116-1.8l-.016-.1-1.963-.007-1.965,0,.065.2a6.54,6.54,0,0,1,.191.843,10.883,10.883,0,0,1,.031,1.683,5.137,5.137,0,0,1-1.042,2.794,5.482,5.482,0,0,1-.863.825,4.892,4.892,0,0,1-1.694.722,8.152,8.152,0,0,1-1.952.139l-1.15.013v-10.069h1.1c.829,0,1.181.009,1.43.033a4.9,4.9,0,0,1,2.542.953c.121.094.143.1.157.072s.029-.755.049-1.629.043-1.679.049-1.784l.013-.193-.323-.069a12.1,12.1,0,0,0-1.587-.245c-.32-.031-.8-.038-3.691-.045L1149-2234.1Z" transform="translate(-964.218 -480.094)" fill="#fff"/><path d="M1576.21-2206.895c0,.06-.024,1.024-.056,2.147l-.054,2.039.072.123.074.123,2.033.007a14.772,14.772,0,0,0,2.033-.027,7.161,7.161,0,0,0-.231-.775,6.07,6.07,0,0,0-1.427-2.264,6.324,6.324,0,0,0-1.8-1.223c-.218-.1-.605-.256-.632-.256A.246.246,0,0,0,1576.21-2206.895Z" transform="translate(-1381.747 -506.587)" fill="#fff"/></g></svg>